<?xml version="1.0" encoding="UTF-8" standalone="no"?>
<svg width="78px" height="39px" viewBox="0 0 78 39" version="1.1" xmlns="http://www.w3.org/2000/svg" xmlns:xlink="http://www.w3.org/1999/xlink">
    <!-- Generator: Sketch 46.2 (44496) - http://www.bohemiancoding.com/sketch -->
    <title>content</title>
    <desc>Created with Sketch.</desc>
    <defs>
        <radialGradient cx="50%" cy="0%" fx="50%" fy="0%" r="100%" id="radialGradient-1">
            <stop stop-color="#EC77F2" offset="0%"></stop>
            <stop stop-color="#2948FF" offset="100%"></stop>
        </radialGradient>
    </defs>
    <g id="Page-1" stroke="none" stroke-width="1" fill="none" fill-rule="evenodd">
        <g id="content">
            <polygon id="Shape" fill="#396AFC" fill-rule="nonzero" points="32 38 46 38 46 39 32 39"></polygon>
            <circle id="Oval" fill="#B469F5" fill-rule="nonzero" cx="48" cy="11" r="5"></circle>
            <path d="M16,0 L34,0 L34,1 L16,1 L16,0 Z M40,2 L50,2 L50,3 L40,3 L40,2 Z M14,16 L48,16 L48,17 L14,17 L14,16 Z M16,34 L78,34 L78,35 L16,35 L16,34 Z" id="Shape" fill="#D0DEF5" fill-rule="nonzero"></path>
            <g id="code" transform="translate(0.000000, 2.000000)" fill-rule="nonzero" fill="url(#radialGradient-1)">
                <path d="M17.5,0 C7.84061303,0 0,7.84061303 0,17.5 C0,27.159387 7.84061303,35 17.5,35 C27.159387,35 35,27.159387 35,17.5 C35,7.84061303 27.159387,0 17.5,0 Z M17.5,1 C26.6190779,1 34,8.38092265 34,17.5 C34,26.6190779 26.6190779,34 17.5,34 C8.38092265,34 1,26.6190779 1,17.5 C1,8.38092265 8.38092265,1 17.5,1 Z M17.5,3 C17.2246095,3 17,3.2246095 17,3.5 C17,3.7753905 17.2246095,4 17.5,4 C17.7753905,4 18,3.7753905 18,3.5 C18,3.2246095 17.7753905,3 17.5,3 Z M20.5126797,3.00014674 C20.2688098,2.99429706 20.0581061,3.16393408 20.0093317,3.40376566 C19.9566561,3.67284461 20.1322423,3.93607439 20.4034259,3.99067017 C20.6726582,4.04331622 20.936038,3.86782954 20.9906649,3.59875059 C21.0433409,3.32772141 20.8677542,3.06449164 20.5985219,3.00989586 C20.5692574,3.00599641 20.5419442,3.00209646 20.5126797,3.00014674 Z M14.5019522,3 C14.4687628,3 14.4355734,3.00195445 14.402384,3.00781629 C14.1310105,3.06253031 13.955301,3.32633016 14.0099661,3.59794631 C14.0353467,3.72691481 14.111487,3.84220519 14.22277,3.91646018 C14.3321002,3.98876072 14.4668106,4.01611748 14.5976165,3.99071467 C14.8689895,3.93600065 15.044699,3.67415524 14.9900339,3.4025391 C14.9431781,3.1700044 14.7401362,3.00195445 14.5019522,3 Z M11.5034841,4 C11.4371502,4 11.3708158,4.01170724 11.3083837,4.03707335 C11.0528027,4.14439214 10.9318402,4.43512805 11.0391455,4.69074174 C11.1444995,4.94635542 11.4351993,5.06733258 11.6907804,4.96196541 C11.946362,4.85464662 12.0673244,4.56391071 11.96197,4.30829702 C11.8839298,4.12292828 11.7044375,4.00195112 11.5034841,4 Z M22.5121238,4.00009168 C22.3053172,3.99618929 22.1180208,4.11715586 22.0380298,4.30836044 C21.9326759,4.56395069 22.0536378,4.85465994 22.3092194,4.9619689 C22.564801,5.06732641 22.8555005,4.94636034 22.9608544,4.69077009 C23.0681597,4.43517984 22.9471977,4.14447058 22.6916161,4.03716163 C22.6350372,4.01374879 22.5726051,4.00204262 22.5121238,4.00009168 Z M9.50633522,5 C9.40484201,5 9.30530047,5.02927295 9.22137328,5.08586697 C8.99301369,5.23808593 8.93055633,5.54837755 9.08474806,5.7786574 C9.23698761,6.00698534 9.54732273,6.06943405 9.77763448,5.91526368 C10.0079457,5.76304522 10.0684514,5.4527531 9.91621137,5.22442515 C9.8244775,5.08586697 9.67028578,5.0019514 9.50633522,5 Z M25.5084772,5.0000333 C25.3386076,4.99808197 25.1785009,5.08199474 25.0847798,5.22445098 C24.9305303,5.45277132 24.9930111,5.76305311 25.2214562,5.91526651 C25.4518542,6.06943173 25.7623055,6.00698511 25.9146021,5.77866477 C25.9887982,5.66938317 26.0161333,5.53278093 25.9907506,5.40398502 C25.9653679,5.27323728 25.8892194,5.15810119 25.7779257,5.08589741 C25.6978719,5.03125661 25.6061036,5.00198463 25.5084772,5.0000333 Z M17.5,6 C11.155806,6 6,11.155806 6,17.5 C6,23.844194 11.155806,29 17.5,29 C23.844194,29 29,23.844194 29,17.5 C29,11.155806 23.844194,6 17.5,6 Z M7.50684938,7 C7.37182013,7 7.24070453,7.05273451 7.14677106,7.14843752 C6.95107631,7.34179704 6.95107631,7.66015658 7.14677106,7.85351561 C7.34050897,8.04882813 7.65949153,8.04882813 7.85322894,7.85351561 C8.04892369,7.66015658 8.04892369,7.34179704 7.85322894,7.14843752 C7.76125279,7.05468751 7.63796498,7.001953 7.50684938,7 Z M27.5068494,7 C27.3718201,7 27.2407045,7.05273451 27.1467711,7.14843752 C26.9510763,7.34179704 26.9510763,7.66015658 27.1467711,7.85351561 C27.340509,8.04882813 27.659491,8.04882813 27.8532289,7.85351561 C28.0489237,7.66015658 28.0489237,7.34179704 27.8532289,7.14843752 C27.7612523,7.05468751 27.637965,7.001953 27.5068494,7 Z M17.5,7 C23.3057618,7 28,11.6942382 28,17.5 C28,23.3057618 23.3057618,28 17.5,28 C11.6942382,28 7,23.3057618 7,17.5 C7,11.6942382 11.6942382,7 17.5,7 Z M29.5049352,9.00009177 C29.403331,8.99813654 29.3056344,9.02746698 29.2216154,9.08417214 C28.993006,9.23668955 28.9304804,9.54759106 29.0848407,9.77636742 C29.2372468,10.0070995 29.5479213,10.0696709 29.7765307,9.91519773 C30.0070943,9.76072459 30.06962,9.45177881 29.9152596,9.22104671 C29.8234249,9.08417214 29.6690651,9.00009177 29.5049352,9.00009177 Z M5.50781448,9.00013067 C5.33784583,8.99622075 5.17764488,9.08028891 5.08386886,9.22105482 C4.93148308,9.45175476 4.99204639,9.76261295 5.22257935,9.9151091 C5.45311181,10.0695607 5.76179145,10.0069981 5.91613127,9.7782536 C6.06851705,9.54755366 6.00795324,9.23669548 5.77742078,9.08419932 C5.69732056,9.03141198 5.60549809,9.00208563 5.50781448,9.00013067 Z M30.5038987,11.0001842 C30.4376203,10.9982296 30.3713413,11.0119122 30.3089613,11.0373237 C30.0535931,11.1428774 29.9327321,11.4360831 30.0379981,11.6901942 C30.1452138,11.9462605 30.4356705,12.0674518 30.6910387,11.9618981 C30.9464069,11.8563439 31.0672679,11.5631387 30.9620019,11.3070724 C30.8840269,11.1233306 30.7046845,11.0001842 30.5038987,11.0001842 Z M4.51075649,11.0000917 C4.30372534,10.9961893 4.1162252,11.1171558 4.03810015,11.3083604 C3.93263107,11.5639506 4.05372516,11.8546598 4.30763134,11.9619687 C4.56349102,12.0673267 4.85645973,11.9463601 4.96192881,11.6907699 C5.06739738,11.4351802 4.9463038,11.1444706 4.69044411,11.0391131 C4.63380357,11.0137493 4.57325653,11.0020426 4.51075649,11.0000917 Z M31.5009771,14.000508 C31.4678109,13.9985552 31.4346447,14.0024608 31.401478,14.0083198 C31.1322458,14.0630027 30.9566591,14.3266524 31.0093351,14.5961605 C31.063962,14.867622 31.3273418,15.0433887 31.596574,14.9906586 C31.8677576,14.9359758 32.0433442,14.6723261 31.9906682,14.4008646 C31.9438451,14.1684628 31.7389945,14.000508 31.5009771,14.000508 Z M3.51346109,14.0001487 C3.26931931,13.9942872 3.05838069,14.1623127 3.00955244,14.4006738 C2.9841613,14.5315773 3.00955244,14.6683422 3.08377133,14.777754 C3.15799072,14.8891194 3.27322533,14.965317 3.40408552,14.9907161 C3.5329927,15.0161151 3.66775891,14.9887624 3.77908749,14.9164721 C3.88846307,14.8422287 3.96463547,14.7269554 3.99002611,14.5960519 C4.0447139,14.3264303 3.86893197,14.0626697 3.59939905,14.0079638 C3.57010189,14.0040565 3.54275825,14.0001487 3.51346109,14.0001487 Z M3.5,17 C3.2246095,17 3,17.2246095 3,17.5 C3,17.7753905 3.2246095,18 3.5,18 C3.7753905,18 4,17.7753905 4,17.5 C4,17.2246095 3.7753905,17 3.5,17 Z M31.5,17 C31.2246095,17 31,17.2246095 31,17.5 C31,17.7753905 31.2246095,18 31.5,18 C31.7753905,18 32,17.7753905 32,17.5 C32,17.2246095 31.7753905,17 31.5,17 Z M3.50195245,20 C3.46876252,20 3.43557309,20.0039005 3.40238366,20.0097506 C3.13101013,20.0643543 2.95530097,20.3276228 3.00996612,20.5986917 C3.06463127,20.8678101 3.3262428,21.0433226 3.59761634,20.9906688 C3.86898987,20.936065 4.04469903,20.6727966 3.99003388,20.4036782 C3.94317804,20.1696619 3.74013606,20.00195 3.50195245,20 Z M31.5126831,20.0001467 C31.2688127,19.9942971 31.058109,20.1639341 31.0093351,20.4037657 C30.9566591,20.6728446 31.1322458,20.9360744 31.401478,20.9906702 C31.6726616,21.0433162 31.9360413,20.8678295 31.9906682,20.5987506 C32.0433442,20.3277214 31.8677576,20.0644916 31.596574,20.0098959 C31.5692608,20.0059964 31.5419471,20.0020965 31.5126831,20.0001467 Z M30.5116962,22.0000903 C30.3050628,21.9961885 30.1179228,22.1191021 30.0379981,22.3103019 C29.9327321,22.5639338 30.0535931,22.8565864 30.3089613,22.961941 C30.5643295,23.0672961 30.8547862,22.9463329 30.9620019,22.6927011 C31.0672679,22.4371178 30.9464069,22.1444657 30.6910387,22.0391106 C30.634507,22.0156984 30.572127,22.0020411 30.5116962,22.0000903 Z M4.50305282,22 C4.43666326,22 4.3702732,22.0117175 4.30778868,22.0371048 C4.18672516,22.08788 4.08909284,22.1855237 4.03832441,22.3085552 C3.98755549,22.4315868 3.98755549,22.5682881 4.0363714,22.6913196 C4.1437668,22.947147 4.43471025,23.0682253 4.6905064,22.9608168 C4.81352293,22.9119949 4.91115475,22.8143512 4.96192368,22.6913196 C5.01269211,22.5682881 5.01269211,22.4315868 4.96192368,22.3085552 C4.88577054,22.1230315 4.70417501,22.0019533 4.50305282,22 Z M29.5088428,25.0001307 C29.338851,24.99622 29.1786292,25.0803056 29.0848407,25.2211008 C28.9304804,25.4518487 28.993006,25.7608156 29.2216154,25.9152994 C29.3310353,25.9896082 29.4678105,26.0169848 29.5967694,25.9896082 C29.7276826,25.9641865 29.8429645,25.8879228 29.9152596,25.7764595 C30.06962,25.5476675 30.0070943,25.2367447 29.7765307,25.0842168 C29.6983736,25.0294631 29.6045851,25.0001307 29.5088428,25.0001307 Z M5.50512476,25.0000918 C5.40358007,24.9981367 5.30594119,25.0274642 5.22197142,25.0841637 C4.99349599,25.2386213 4.93100695,25.5475361 5.08332374,25.778245 C5.23759368,26.0069984 5.54808622,26.0695634 5.7785143,25.9151058 C6.00698973,25.7626037 6.06947877,25.4517334 5.91520933,25.2210245 C5.82342843,25.0841637 5.66915848,25.0020468 5.50512476,25.0000918 Z M7.50684938,27.0000525 C7.37182013,26.9980958 7.24070453,27.0509307 7.14677106,27.1468159 C6.95107631,27.3405437 6.95107631,27.6595089 7.14677106,27.8532367 C7.34050897,28.0489211 7.65949153,28.0489211 7.85322894,27.8532367 C8.04892369,27.6595089 8.04892369,27.3405437 7.85322894,27.1468159 C7.76125279,27.0528874 7.63796498,27.0000525 7.50684938,27.0000525 Z M27.5068494,27.0000525 C27.3718201,26.9980958 27.2407045,27.0509307 27.1467711,27.1468159 C26.9510763,27.3405437 26.9510763,27.6595089 27.1467711,27.8532367 C27.340509,28.0489211 27.659491,28.0489211 27.8532289,27.8532367 C28.0489237,27.6595089 28.0489237,27.3405437 27.8532289,27.1468159 C27.7612523,27.0528874 27.637965,27.0000525 27.5068494,27.0000525 Z M9.50874242,29.0001306 C9.33875113,28.9962221 9.17852886,29.0802499 9.08474036,29.2209474 C8.93038,29.4515352 8.99290566,29.7622418 9.22346931,29.9166183 C9.45207866,30.0690409 9.76275319,30.0065087 9.91515925,29.7778749 C10.0695196,29.5472875 10.006994,29.2385345 9.77838461,29.0841584 C9.69827372,29.0313967 9.60448522,29.0001306 9.50874242,29.0001306 Z M25.5051905,29.0000918 C25.4036593,28.9981377 25.3060329,29.0274504 25.2220748,29.0821682 C25.1107805,29.1564284 25.0346325,29.2717268 25.0092493,29.4026583 C24.9838666,29.5316363 25.0112022,29.6684306 25.0853979,29.7778662 C25.2376949,30.0065089 25.5481458,30.0690436 25.7785438,29.9166151 C26.0069889,29.7622326 26.0694697,29.4515139 25.9152202,29.2209171 C25.8254044,29.0841228 25.6711549,29.0000918 25.5051905,29.0000918 Z M11.5107564,30.0000902 C11.3037253,29.9961885 11.1162252,30.1191026 11.0381001,30.3103018 C10.9326311,30.5639341 11.0537251,30.8565862 11.3076313,30.9619412 C11.5634909,31.0672958 11.8564601,30.9463331 11.9619286,30.6927009 C12.0673977,30.4371177 11.9463036,30.1444656 11.690444,30.0391106 C11.6338034,30.0156984 11.5732564,30.0020416 11.5107564,30.0000902 Z M22.5030529,30 C22.4366628,30 22.3702732,30.0136585 22.3097412,30.0390238 C22.1867247,30.0897551 22.0890929,30.1873144 22.038324,30.3082885 C21.9875555,30.4312137 21.9875555,30.5697479 22.0363715,30.6926731 C22.1437669,30.9463283 22.4347103,31.0673019 22.6905064,30.9619378 C22.8135229,30.9112066 22.9111548,30.8136473 22.9619237,30.6926731 C23.0126921,30.5697479 23.0126921,30.4312137 22.9619237,30.3102396 C22.8857705,30.1229252 22.704175,30.0019516 22.5030529,30 Z M14.5136664,31.0001469 C14.2696258,30.9942895 14.0568219,31.1641518 14.0099661,31.402349 C13.955301,31.6737381 14.1310105,31.9353651 14.402384,31.9900333 C14.6737569,32.0447016 14.9353688,31.8689819 14.9900339,31.5975928 C15.044699,31.3262043 14.8689895,31.0645773 14.5976165,31.009909 C14.5702837,31.0040516 14.5409987,31.0001469 14.5136664,31.0001469 Z M20.501006,31.000508 C20.4678377,30.998555 20.4346694,31.002461 20.403452,31.0083206 C20.1322508,31.0630084 19.9566533,31.3247287 20.0093323,31.5962141 C20.0366477,31.7270743 20.1127402,31.8403564 20.2220011,31.9145753 C20.3332129,31.9887947 20.4678377,32.0161383 20.5985606,31.9907477 C20.7273321,31.9634036 20.8424463,31.8872317 20.9165878,31.7778561 C20.9887779,31.666527 21.0160929,31.5317608 20.9907289,31.4009006 C20.9439028,31.1684779 20.7390388,31.000508 20.501006,31.000508 Z M17.5,31 C17.2246095,31 17,31.2246095 17,31.5 C17,31.7753905 17.2246095,32 17.5,32 C17.7753905,32 18,31.7753905 18,31.5 C18,31.2246095 17.7753905,31 17.5,31 Z" id="Shape"></path>
            </g>
            <rect id="Rectangle" fill="#D0DEF5" x="30" y="21" width="20" height="14" rx="1"></rect>
            <rect id="Rectangle-Copy" fill="#396AFC" x="45" y="31" width="5" height="3"></rect>
        </g>
    </g>
</svg>