<?xml version="1.0" encoding="UTF-8"?>
<svg width="1216px" height="776px" viewBox="0 0 1216 776" version="1.1" xmlns="http://www.w3.org/2000/svg" xmlns:xlink="http://www.w3.org/1999/xlink" style="background: #553FFB;">
    <!-- Generator: Sketch 46.2 (44496) - http://www.bohemiancoding.com/sketch -->
    <title>Rectangle</title>
    <desc>Created with Sketch.</desc>
    <defs>
        <radialGradient cx="142.32171%" cy="12.6332939%" fx="142.32171%" fy="12.6332939%" r="103.164315%" gradientTransform="translate(1.423217,0.126333),scale(0.557103,1.000000),translate(-1.423217,-0.126333)" id="radialGradient-1">
            <stop stop-color="#475AFB" offset="0%"></stop>
            <stop stop-color="#553FFB" offset="100%"></stop>
        </radialGradient>
    </defs>
    <g id="Symbols" stroke="none" stroke-width="1" fill="none" fill-rule="evenodd">
        <g id="Rectangle">
            <rect id="Rectangle-2" fill="url(#radialGradient-1)" x="-74" y="0" width="1436" height="800"></rect>
            <g id="lines" transform="translate(3.000000, 177.000000)" stroke-opacity="0.08" stroke="#35A7FC" stroke-width="4.2">
                <path d="M0,116 C0,116 75.6875,87 151.375,87 C227.0625,87 302.75,116 302.75,116 C302.75,116 378.4375,145 454.125,145 C529.8125,145 605.5,116 605.5,116 C605.5,116 681.1875,87 756.875,87 C832.5625,87 908.25,116 908.25,116 C908.25,116 983.9375,145 1059.625,145 C1135.3125,145 1211,116 1211,116" id="Shape"></path>
                <path d="M0,87 C0,87 75.6875,58 151.375,58 C227.0625,58 302.75,87 302.75,87 C302.75,87 378.4375,116 454.125,116 C529.8125,116 605.5,87 605.5,87 C605.5,87 681.1875,58 756.875,58 C832.5625,58 908.25,87 908.25,87 C908.25,87 983.9375,116 1059.625,116 C1135.3125,116 1211,87 1211,87" id="Shape"></path>
                <path d="M0,146 C0,146 75.6875,117 151.375,117 C227.0625,117 302.75,146 302.75,146 C302.75,146 378.4375,175 454.125,175 C529.8125,175 605.5,146 605.5,146 C605.5,146 681.1875,117 756.875,117 C832.5625,117 908.25,146 908.25,146 C908.25,146 983.9375,175 1059.625,175 C1135.3125,175 1211,146 1211,146" id="Shape"></path>
                <path d="M0,58 C0,58 75.6875,29 151.375,29 C227.0625,29 302.75,58 302.75,58 C302.75,58 378.4375,87 454.125,87 C529.8125,87 605.5,58 605.5,58 C605.5,58 681.1875,29 756.875,29 C832.5625,29 908.25,58 908.25,58 C908.25,58 983.9375,87 1059.625,87 C1135.3125,87 1211,58 1211,58" id="Shape"></path>
                <path d="M0,29 C0,29 75.6875,0 151.375,0 C227.0625,0 302.75,29 302.75,29 C302.75,29 378.4375,58 454.125,58 C529.8125,58 605.5,29 605.5,29 C605.5,29 681.1875,0 756.875,0 C832.5625,0 908.25,29 908.25,29 C908.25,29 983.9375,58 1059.625,58 C1135.3125,58 1211,29 1211,29" id="Shape"></path>
                <path d="M0,175 C0,175 75.6875,146 151.375,146 C227.0625,146 302.75,175 302.75,175 C302.75,175 378.4375,204 454.125,204 C529.8125,204 605.5,175 605.5,175 C605.5,175 681.1875,146 756.875,146 C832.5625,146 908.25,175 908.25,175 C908.25,175 983.9375,204 1059.625,204 C1135.3125,204 1211,175 1211,175" id="Shape"></path>
            </g>
            <g id="lines-copy-3" transform="translate(4.000000, 256.000000)" stroke-opacity="0.08" stroke="#35A7FC" stroke-width="4.2">
                <path d="M0,116.571429 C0,116.571429 75.5,87.4285714 151,87.4285714 C226.5,87.4285714 302,116.571429 302,116.571429 C302,116.571429 377.5,145.714286 453,145.714286 C528.5,145.714286 604,116.571429 604,116.571429 C604,116.571429 679.5,87.4285714 755,87.4285714 C830.5,87.4285714 906,116.571429 906,116.571429 C906,116.571429 981.5,145.714286 1057,145.714286 C1132.5,145.714286 1208,116.571429 1208,116.571429" id="Shape"></path>
                <path d="M0,87.4285714 C0,87.4285714 75.5,58.2857143 151,58.2857143 C226.5,58.2857143 302,87.4285714 302,87.4285714 C302,87.4285714 377.5,116.571429 453,116.571429 C528.5,116.571429 604,87.4285714 604,87.4285714 C604,87.4285714 679.5,58.2857143 755,58.2857143 C830.5,58.2857143 906,87.4285714 906,87.4285714 C906,87.4285714 981.5,116.571429 1057,116.571429 C1132.5,116.571429 1208,87.4285714 1208,87.4285714" id="Shape"></path>
                <path d="M0,145.714286 C0,145.714286 75.5,116.571429 151,116.571429 C226.5,116.571429 302,145.714286 302,145.714286 C302,145.714286 377.5,174.857143 453,174.857143 C528.5,174.857143 604,145.714286 604,145.714286 C604,145.714286 679.5,116.571429 755,116.571429 C830.5,116.571429 906,145.714286 906,145.714286 C906,145.714286 981.5,174.857143 1057,174.857143 C1132.5,174.857143 1208,145.714286 1208,145.714286" id="Shape"></path>
                <path d="M0,58.2857143 C0,58.2857143 75.5,29.1428571 151,29.1428571 C226.5,29.1428571 302,58.2857143 302,58.2857143 C302,58.2857143 377.5,87.4285714 453,87.4285714 C528.5,87.4285714 604,58.2857143 604,58.2857143 C604,58.2857143 679.5,29.1428571 755,29.1428571 C830.5,29.1428571 906,58.2857143 906,58.2857143 C906,58.2857143 981.5,87.4285714 1057,87.4285714 C1132.5,87.4285714 1208,58.2857143 1208,58.2857143" id="Shape"></path>
                <path d="M0,29.1428571 C0,29.1428571 75.5,0 151,0 C226.5,0 302,29.1428571 302,29.1428571 C302,29.1428571 377.5,58.2857143 453,58.2857143 C528.5,58.2857143 604,29.1428571 604,29.1428571 C604,29.1428571 679.5,0 755,0 C830.5,0 906,29.1428571 906,29.1428571 C906,29.1428571 981.5,58.2857143 1057,58.2857143 C1132.5,58.2857143 1208,29.1428571 1208,29.1428571" id="Shape"></path>
                <path d="M0,174.857143 C0,174.857143 75.5,145.714286 151,145.714286 C226.5,145.714286 302,174.857143 302,174.857143 C302,174.857143 377.5,204 453,204 C528.5,204 604,174.857143 604,174.857143 C604,174.857143 679.5,145.714286 755,145.714286 C830.5,145.714286 906,174.857143 906,174.857143 C906,174.857143 981.5,204 1057,204 C1132.5,204 1208,174.857143 1208,174.857143" id="Shape"></path>
            </g>
            <g id="lines-copy" opacity="0.306272645" transform="translate(17.000000, 429.000000)" stroke-width="4.2">
                <path d="M0,29 C0,29 72.9375,0 145.875,0 C218.8125,0 291.75,29 291.75,29 C291.75,29 364.6875,58 437.625,58 C510.5625,58 583.5,29 583.5,29 C583.5,29 656.4375,0 729.375,0 C802.3125,0 875.25,29 875.25,29 C875.25,29 948.1875,58 1021.125,58 C1094.0625,58 1167,29 1167,29" id="Shape" stroke-opacity="0.08" stroke="#35A7FC"></path>
                <path d="M0,58 C0,58 72.9375,29 145.875,29 C218.8125,29 291.75,58 291.75,58 C291.75,58 364.6875,87 437.625,87 C510.5625,87 583.5,58 583.5,58 C583.5,58 656.4375,29 729.375,29 C802.3125,29 875.25,58 875.25,58 C875.25,58 948.1875,87 1021.125,87 C1094.0625,87 1167,58 1167,58" id="Shape" stroke-opacity="0.107195426" stroke="#FFFFFF"></path>
                <path d="M0,87 C0,87 72.9375,58 145.875,58 C218.8125,58 291.75,87 291.75,87 C291.75,87 364.6875,116 437.625,116 C510.5625,116 583.5,87 583.5,87 C583.5,87 656.4375,58 729.375,58 C802.3125,58 875.25,87 875.25,87 C875.25,87 948.1875,116 1021.125,116 C1094.0625,116 1167,87 1167,87" id="Shape" stroke-opacity="0.107195426" stroke="#FFFFFF"></path>
            </g>
            <g id="lines-copy-2" transform="translate(3.000000, 7.000000)" stroke-opacity="0.08" stroke="#35A7FC" stroke-width="4.2">
                <path d="M0,108.571429 C0,108.571429 75.6875,81.4285714 151.375,81.4285714 C227.0625,81.4285714 302.75,108.571429 302.75,108.571429 C302.75,108.571429 378.4375,135.714286 454.125,135.714286 C529.8125,135.714286 605.5,108.571429 605.5,108.571429 C605.5,108.571429 681.1875,81.4285714 756.875,81.4285714 C832.5625,81.4285714 908.25,108.571429 908.25,108.571429 C908.25,108.571429 983.9375,135.714286 1059.625,135.714286 C1135.3125,135.714286 1211,108.571429 1211,108.571429" id="Shape"></path>
                <path d="M0,81.4285714 C0,81.4285714 75.6875,54.2857143 151.375,54.2857143 C227.0625,54.2857143 302.75,81.4285714 302.75,81.4285714 C302.75,81.4285714 378.4375,108.571429 454.125,108.571429 C529.8125,108.571429 605.5,81.4285714 605.5,81.4285714 C605.5,81.4285714 681.1875,54.2857143 756.875,54.2857143 C832.5625,54.2857143 908.25,81.4285714 908.25,81.4285714 C908.25,81.4285714 983.9375,108.571429 1059.625,108.571429 C1135.3125,108.571429 1211,81.4285714 1211,81.4285714" id="Shape"></path>
                <path d="M0,135.714286 C0,135.714286 75.6875,108.571429 151.375,108.571429 C227.0625,108.571429 302.75,135.714286 302.75,135.714286 C302.75,135.714286 378.4375,162.857143 454.125,162.857143 C529.8125,162.857143 605.5,135.714286 605.5,135.714286 C605.5,135.714286 681.1875,108.571429 756.875,108.571429 C832.5625,108.571429 908.25,135.714286 908.25,135.714286 C908.25,135.714286 983.9375,162.857143 1059.625,162.857143 C1135.3125,162.857143 1211,135.714286 1211,135.714286" id="Shape"></path>
                <path d="M0,54.2857143 C0,54.2857143 75.6875,27.1428571 151.375,27.1428571 C227.0625,27.1428571 302.75,54.2857143 302.75,54.2857143 C302.75,54.2857143 378.4375,81.4285714 454.125,81.4285714 C529.8125,81.4285714 605.5,54.2857143 605.5,54.2857143 C605.5,54.2857143 681.1875,27.1428571 756.875,27.1428571 C832.5625,27.1428571 908.25,54.2857143 908.25,54.2857143 C908.25,54.2857143 983.9375,81.4285714 1059.625,81.4285714 C1135.3125,81.4285714 1211,54.2857143 1211,54.2857143" id="Shape"></path>
                <path d="M0,27.1428571 C0,27.1428571 75.6875,0 151.375,0 C227.0625,0 302.75,27.1428571 302.75,27.1428571 C302.75,27.1428571 378.4375,54.2857143 454.125,54.2857143 C529.8125,54.2857143 605.5,27.1428571 605.5,27.1428571 C605.5,27.1428571 681.1875,0 756.875,0 C832.5625,0 908.25,27.1428571 908.25,27.1428571 C908.25,27.1428571 983.9375,54.2857143 1059.625,54.2857143 C1135.3125,54.2857143 1211,27.1428571 1211,27.1428571" id="Shape"></path>
                <path d="M0,162.857143 C0,162.857143 75.6875,135.714286 151.375,135.714286 C227.0625,135.714286 302.75,162.857143 302.75,162.857143 C302.75,162.857143 378.4375,190 454.125,190 C529.8125,190 605.5,162.857143 605.5,162.857143 C605.5,162.857143 681.1875,135.714286 756.875,135.714286 C832.5625,135.714286 908.25,162.857143 908.25,162.857143 C908.25,162.857143 983.9375,190 1059.625,190 C1135.3125,190 1211,162.857143 1211,162.857143" id="Shape"></path>
            </g>
            <g id="lines-copy-7" transform="translate(3.000000, 404.000000)" stroke-opacity="0.08" stroke="#35A7FC" stroke-width="4.2">
                <path d="M0,116 C0,116 75.6875,87 151.375,87 C227.0625,87 302.75,116 302.75,116 C302.75,116 378.4375,145 454.125,145 C529.8125,145 605.5,116 605.5,116 C605.5,116 681.1875,87 756.875,87 C832.5625,87 908.25,116 908.25,116 C908.25,116 983.9375,145 1059.625,145 C1135.3125,145 1211,116 1211,116" id="Shape"></path>
                <path d="M0,87 C0,87 75.6875,58 151.375,58 C227.0625,58 302.75,87 302.75,87 C302.75,87 378.4375,116 454.125,116 C529.8125,116 605.5,87 605.5,87 C605.5,87 681.1875,58 756.875,58 C832.5625,58 908.25,87 908.25,87 C908.25,87 983.9375,116 1059.625,116 C1135.3125,116 1211,87 1211,87" id="Shape"></path>
                <path d="M0,146 C0,146 75.6875,117 151.375,117 C227.0625,117 302.75,146 302.75,146 C302.75,146 378.4375,175 454.125,175 C529.8125,175 605.5,146 605.5,146 C605.5,146 681.1875,117 756.875,117 C832.5625,117 908.25,146 908.25,146 C908.25,146 983.9375,175 1059.625,175 C1135.3125,175 1211,146 1211,146" id="Shape"></path>
                <path d="M0,58 C0,58 75.6875,29 151.375,29 C227.0625,29 302.75,58 302.75,58 C302.75,58 378.4375,87 454.125,87 C529.8125,87 605.5,58 605.5,58 C605.5,58 681.1875,29 756.875,29 C832.5625,29 908.25,58 908.25,58 C908.25,58 983.9375,87 1059.625,87 C1135.3125,87 1211,58 1211,58" id="Shape"></path>
                <path d="M0,29 C0,29 75.6875,0 151.375,0 C227.0625,0 302.75,29 302.75,29 C302.75,29 378.4375,58 454.125,58 C529.8125,58 605.5,29 605.5,29 C605.5,29 681.1875,0 756.875,0 C832.5625,0 908.25,29 908.25,29 C908.25,29 983.9375,58 1059.625,58 C1135.3125,58 1211,29 1211,29" id="Shape"></path>
                <path d="M0,175 C0,175 75.6875,146 151.375,146 C227.0625,146 302.75,175 302.75,175 C302.75,175 378.4375,204 454.125,204 C529.8125,204 605.5,175 605.5,175 C605.5,175 681.1875,146 756.875,146 C832.5625,146 908.25,175 908.25,175 C908.25,175 983.9375,204 1059.625,204 C1135.3125,204 1211,175 1211,175" id="Shape"></path>
            </g>
            <g id="lines-copy-6" transform="translate(4.000000, 483.000000)" stroke-opacity="0.08" stroke="#35A7FC" stroke-width="4.2">
                <path d="M0,116.571429 C0,116.571429 75.5,87.4285714 151,87.4285714 C226.5,87.4285714 302,116.571429 302,116.571429 C302,116.571429 377.5,145.714286 453,145.714286 C528.5,145.714286 604,116.571429 604,116.571429 C604,116.571429 679.5,87.4285714 755,87.4285714 C830.5,87.4285714 906,116.571429 906,116.571429 C906,116.571429 981.5,145.714286 1057,145.714286 C1132.5,145.714286 1208,116.571429 1208,116.571429" id="Shape"></path>
                <path d="M0,87.4285714 C0,87.4285714 75.5,58.2857143 151,58.2857143 C226.5,58.2857143 302,87.4285714 302,87.4285714 C302,87.4285714 377.5,116.571429 453,116.571429 C528.5,116.571429 604,87.4285714 604,87.4285714 C604,87.4285714 679.5,58.2857143 755,58.2857143 C830.5,58.2857143 906,87.4285714 906,87.4285714 C906,87.4285714 981.5,116.571429 1057,116.571429 C1132.5,116.571429 1208,87.4285714 1208,87.4285714" id="Shape"></path>
                <path d="M0,145.714286 C0,145.714286 75.5,116.571429 151,116.571429 C226.5,116.571429 302,145.714286 302,145.714286 C302,145.714286 377.5,174.857143 453,174.857143 C528.5,174.857143 604,145.714286 604,145.714286 C604,145.714286 679.5,116.571429 755,116.571429 C830.5,116.571429 906,145.714286 906,145.714286 C906,145.714286 981.5,174.857143 1057,174.857143 C1132.5,174.857143 1208,145.714286 1208,145.714286" id="Shape"></path>
                <path d="M0,58.2857143 C0,58.2857143 75.5,29.1428571 151,29.1428571 C226.5,29.1428571 302,58.2857143 302,58.2857143 C302,58.2857143 377.5,87.4285714 453,87.4285714 C528.5,87.4285714 604,58.2857143 604,58.2857143 C604,58.2857143 679.5,29.1428571 755,29.1428571 C830.5,29.1428571 906,58.2857143 906,58.2857143 C906,58.2857143 981.5,87.4285714 1057,87.4285714 C1132.5,87.4285714 1208,58.2857143 1208,58.2857143" id="Shape"></path>
                <path d="M0,29.1428571 C0,29.1428571 75.5,0 151,0 C226.5,0 302,29.1428571 302,29.1428571 C302,29.1428571 377.5,58.2857143 453,58.2857143 C528.5,58.2857143 604,29.1428571 604,29.1428571 C604,29.1428571 679.5,0 755,0 C830.5,0 906,29.1428571 906,29.1428571 C906,29.1428571 981.5,58.2857143 1057,58.2857143 C1132.5,58.2857143 1208,29.1428571 1208,29.1428571" id="Shape"></path>
                <path d="M0,174.857143 C0,174.857143 75.5,145.714286 151,145.714286 C226.5,145.714286 302,174.857143 302,174.857143 C302,174.857143 377.5,204 453,204 C528.5,204 604,174.857143 604,174.857143 C604,174.857143 679.5,145.714286 755,145.714286 C830.5,145.714286 906,174.857143 906,174.857143 C906,174.857143 981.5,204 1057,204 C1132.5,204 1208,174.857143 1208,174.857143" id="Shape"></path>
            </g>
            <g id="lines-copy-5" opacity="0.306272645" transform="translate(17.000000, 656.000000)" stroke-width="4.2">
                <path d="M0,29 C0,29 72.9375,0 145.875,0 C218.8125,0 291.75,29 291.75,29 C291.75,29 364.6875,58 437.625,58 C510.5625,58 583.5,29 583.5,29 C583.5,29 656.4375,0 729.375,0 C802.3125,0 875.25,29 875.25,29 C875.25,29 948.1875,58 1021.125,58 C1094.0625,58 1167,29 1167,29" id="Shape" stroke-opacity="0.08" stroke="#35A7FC"></path>
                <path d="M0,58 C0,58 72.9375,29 145.875,29 C218.8125,29 291.75,58 291.75,58 C291.75,58 364.6875,87 437.625,87 C510.5625,87 583.5,58 583.5,58 C583.5,58 656.4375,29 729.375,29 C802.3125,29 875.25,58 875.25,58 C875.25,58 948.1875,87 1021.125,87 C1094.0625,87 1167,58 1167,58" id="Shape" stroke-opacity="0.107195426" stroke="#FFFFFF"></path>
                <path d="M0,87 C0,87 72.9375,58 145.875,58 C218.8125,58 291.75,87 291.75,87 C291.75,87 364.6875,116 437.625,116 C510.5625,116 583.5,87 583.5,87 C583.5,87 656.4375,58 729.375,58 C802.3125,58 875.25,87 875.25,87 C875.25,87 948.1875,116 1021.125,116 C1094.0625,116 1167,87 1167,87" id="Shape" stroke-opacity="0.107195426" stroke="#FFFFFF"></path>
            </g>
            <g id="lines-copy-4" transform="translate(3.000000, 234.000000)" stroke-opacity="0.08" stroke="#35A7FC" stroke-width="4.2">
                <path d="M0,108.571429 C0,108.571429 75.6875,81.4285714 151.375,81.4285714 C227.0625,81.4285714 302.75,108.571429 302.75,108.571429 C302.75,108.571429 378.4375,135.714286 454.125,135.714286 C529.8125,135.714286 605.5,108.571429 605.5,108.571429 C605.5,108.571429 681.1875,81.4285714 756.875,81.4285714 C832.5625,81.4285714 908.25,108.571429 908.25,108.571429 C908.25,108.571429 983.9375,135.714286 1059.625,135.714286 C1135.3125,135.714286 1211,108.571429 1211,108.571429" id="Shape"></path>
                <path d="M0,81.4285714 C0,81.4285714 75.6875,54.2857143 151.375,54.2857143 C227.0625,54.2857143 302.75,81.4285714 302.75,81.4285714 C302.75,81.4285714 378.4375,108.571429 454.125,108.571429 C529.8125,108.571429 605.5,81.4285714 605.5,81.4285714 C605.5,81.4285714 681.1875,54.2857143 756.875,54.2857143 C832.5625,54.2857143 908.25,81.4285714 908.25,81.4285714 C908.25,81.4285714 983.9375,108.571429 1059.625,108.571429 C1135.3125,108.571429 1211,81.4285714 1211,81.4285714" id="Shape"></path>
                <path d="M0,135.714286 C0,135.714286 75.6875,108.571429 151.375,108.571429 C227.0625,108.571429 302.75,135.714286 302.75,135.714286 C302.75,135.714286 378.4375,162.857143 454.125,162.857143 C529.8125,162.857143 605.5,135.714286 605.5,135.714286 C605.5,135.714286 681.1875,108.571429 756.875,108.571429 C832.5625,108.571429 908.25,135.714286 908.25,135.714286 C908.25,135.714286 983.9375,162.857143 1059.625,162.857143 C1135.3125,162.857143 1211,135.714286 1211,135.714286" id="Shape"></path>
                <path d="M0,54.2857143 C0,54.2857143 75.6875,27.1428571 151.375,27.1428571 C227.0625,27.1428571 302.75,54.2857143 302.75,54.2857143 C302.75,54.2857143 378.4375,81.4285714 454.125,81.4285714 C529.8125,81.4285714 605.5,54.2857143 605.5,54.2857143 C605.5,54.2857143 681.1875,27.1428571 756.875,27.1428571 C832.5625,27.1428571 908.25,54.2857143 908.25,54.2857143 C908.25,54.2857143 983.9375,81.4285714 1059.625,81.4285714 C1135.3125,81.4285714 1211,54.2857143 1211,54.2857143" id="Shape"></path>
                <path d="M0,27.1428571 C0,27.1428571 75.6875,0 151.375,0 C227.0625,0 302.75,27.1428571 302.75,27.1428571 C302.75,27.1428571 378.4375,54.2857143 454.125,54.2857143 C529.8125,54.2857143 605.5,27.1428571 605.5,27.1428571 C605.5,27.1428571 681.1875,0 756.875,0 C832.5625,0 908.25,27.1428571 908.25,27.1428571 C908.25,27.1428571 983.9375,54.2857143 1059.625,54.2857143 C1135.3125,54.2857143 1211,27.1428571 1211,27.1428571" id="Shape"></path>
                <path d="M0,162.857143 C0,162.857143 75.6875,135.714286 151.375,135.714286 C227.0625,135.714286 302.75,162.857143 302.75,162.857143 C302.75,162.857143 378.4375,190 454.125,190 C529.8125,190 605.5,162.857143 605.5,162.857143 C605.5,162.857143 681.1875,135.714286 756.875,135.714286 C832.5625,135.714286 908.25,162.857143 908.25,162.857143 C908.25,162.857143 983.9375,190 1059.625,190 C1135.3125,190 1211,162.857143 1211,162.857143" id="Shape"></path>
            </g>
        </g>
    </g>
</svg>