<?xml version="1.0" encoding="UTF-8" standalone="no"?>
<svg width="341px" height="512px" viewBox="0 0 341 512" version="1.1" xmlns="http://www.w3.org/2000/svg" xmlns:xlink="http://www.w3.org/1999/xlink">
    <!-- Generator: Sketch 46.2 (44496) - http://www.bohemiancoding.com/sketch -->
    <title>communication-tower</title>
    <desc>Created with Sketch.</desc>
    <defs>
        <radialGradient cx="50%" cy="0%" fx="50%" fy="0%" r="100%" gradientTransform="translate(0.500000,0.000000),scale(1.000000,0.597875),translate(-0.500000,-0.000000)" id="radialGradient-1">
            <stop stop-color="#EC77F2" offset="0%"></stop>
            <stop stop-color="#2948FF" offset="100%"></stop>
        </radialGradient>
        <radialGradient cx="50%" cy="0%" fx="50%" fy="0%" r="100%" id="radialGradient-2">
            <stop stop-color="#EC77F2" offset="0%"></stop>
            <stop stop-color="#2948FF" offset="100%"></stop>
        </radialGradient>
    </defs>
    <g id="Page-1" stroke="none" stroke-width="1" fill="none" fill-rule="evenodd">
        <g id="Artboard" transform="translate(-100.000000, -13.000000)">
            <g id="Group" transform="translate(-46.000000, -41.000000)">
                <g id="communication-tower" transform="translate(311.000000, 311.000000) scale(-1, 1) translate(-311.000000, -311.000000) ">
                    <path d="M295.063,270.684 C276.99,270.684 262.286,285.392 262.286,303.471 C262.286,321.544 276.99,336.248 295.063,336.248 C313.142,336.248 327.85,321.544 327.85,303.471 C327.85,285.391 313.142,270.684 295.063,270.684 Z M295.063,316.12 C288.088,316.12 282.413,310.445 282.413,303.47 C282.413,296.489 288.088,290.81 295.063,290.81 C302.044,290.81 307.723,296.49 307.723,303.47 C307.723,310.445 302.043,316.12 295.063,316.12 Z" id="Shape" fill="#3F51B5" fill-rule="nonzero"></path>
                    <path d="M467.735,178.133 C462.547,172.928 455.638,170.061 448.279,170.061 C433.108,170.061 420.765,182.404 420.765,197.575 L420.765,213.002 L403.918,213.002 L403.918,154.315 L403.918,91.735 C403.918,86.177 399.412,81.672 393.855,81.672 C388.298,81.672 383.792,86.177 383.792,91.735 L383.792,144.252 L295.069,144.252 C294.955,144.252 294.846,144.265 294.733,144.269 C294.54,144.275 294.347,144.281 294.153,144.298 C293.998,144.312 293.847,144.335 293.694,144.356 C293.522,144.379 293.35,144.402 293.18,144.434 C293.019,144.464 292.862,144.503 292.705,144.542 C292.544,144.58 292.384,144.618 292.224,144.666 C292.068,144.712 291.915,144.766 291.762,144.819 C291.605,144.873 291.448,144.928 291.293,144.991 C291.146,145.05 291.004,145.117 290.86,145.183 C290.705,145.254 290.55,145.326 290.397,145.405 C290.259,145.477 290.125,145.557 289.99,145.636 C289.842,145.723 289.694,145.809 289.549,145.904 C289.412,145.995 289.281,146.092 289.148,146.189 C289.016,146.286 288.883,146.379 288.755,146.483 C288.612,146.598 288.477,146.722 288.341,146.844 C288.251,146.925 288.157,146.997 288.069,147.082 C288.048,147.102 288.032,147.124 288.011,147.144 C287.876,147.276 287.752,147.418 287.625,147.558 C287.526,147.667 287.423,147.771 287.33,147.883 C287.226,148.008 287.134,148.141 287.036,148.269 C286.934,148.404 286.827,148.537 286.732,148.676 C286.663,148.779 286.602,148.889 286.537,148.995 C286.43,149.166 286.319,149.336 286.223,149.512 C286.166,149.619 286.118,149.73 286.064,149.839 C285.973,150.021 285.879,150.201 285.8,150.386 C285.724,150.565 285.663,150.752 285.597,150.937 C285.554,151.058 285.503,151.176 285.465,151.297 C285.408,151.481 285.365,151.671 285.318,151.859 C285.286,151.988 285.245,152.116 285.218,152.246 C285.185,152.403 285.167,152.564 285.141,152.723 C285.114,152.891 285.083,153.059 285.063,153.228 C285.048,153.365 285.045,153.506 285.036,153.645 C285.023,153.84 285.008,154.035 285.007,154.232 C285.007,154.259 285.003,154.286 285.003,154.314 L285.003,195.081 L285.004,195.081 C229.684,200.175 186.216,246.836 186.216,303.469 C186.216,336.292 200.82,365.769 223.872,385.743 C240.588,400.228 261.75,409.707 285.005,411.85 L285.005,484.21 L268.336,484.21 L268.336,468.783 C268.336,453.612 255.998,441.269 240.833,441.269 C225.668,441.269 213.33,453.612 213.33,468.783 L213.33,519.765 C213.33,527.13 216.197,534.043 221.378,539.207 C226.566,544.412 233.475,547.279 240.834,547.279 C256,547.279 268.337,534.936 268.337,519.766 L268.337,504.339 L285.006,504.339 L285.006,555.938 C285.006,555.965 285.01,555.992 285.01,556.019 C285.011,556.215 285.026,556.41 285.039,556.606 C285.048,556.745 285.051,556.886 285.066,557.023 C285.084,557.192 285.116,557.36 285.144,557.528 C285.169,557.687 285.188,557.848 285.221,558.005 C285.248,558.135 285.288,558.263 285.321,558.392 C285.368,558.58 285.411,558.77 285.468,558.954 C285.506,559.076 285.558,559.195 285.6,559.314 C285.665,559.499 285.727,559.686 285.803,559.865 C285.881,560.051 285.976,560.231 286.067,560.412 C286.121,560.521 286.168,560.633 286.226,560.739 C286.322,560.915 286.433,561.085 286.54,561.256 C286.606,561.362 286.666,561.472 286.735,561.575 C286.83,561.714 286.937,561.846 287.039,561.982 C287.137,562.111 287.229,562.244 287.333,562.368 C287.426,562.48 287.53,562.584 287.628,562.693 C287.755,562.833 287.88,562.974 288.014,563.107 C288.034,563.127 288.051,563.149 288.072,563.169 C288.164,563.258 288.262,563.333 288.356,563.418 C288.486,563.535 288.614,563.652 288.749,563.762 C288.879,563.867 289.013,563.961 289.145,564.059 C289.274,564.154 289.401,564.249 289.534,564.337 C289.679,564.433 289.828,564.518 289.977,564.606 C290.108,564.684 290.237,564.762 290.371,564.833 C290.524,564.914 290.681,564.985 290.837,565.057 C290.976,565.121 291.113,565.188 291.255,565.246 C291.412,565.31 291.571,565.364 291.73,565.42 C291.878,565.472 292.024,565.527 292.175,565.572 C292.338,565.621 292.504,565.659 292.669,565.699 C292.819,565.736 292.967,565.776 293.12,565.807 C293.309,565.844 293.499,565.867 293.691,565.895 C293.823,565.913 293.952,565.937 294.086,565.95 C294.413,565.982 294.741,565.999 295.07,565.999 L393.857,565.999 C394.185,565.999 394.513,565.981 394.84,565.95 C394.975,565.937 395.105,565.912 395.238,565.894 C395.427,565.868 395.616,565.845 395.805,565.807 C395.959,565.777 396.108,565.736 396.26,565.698 C396.424,565.658 396.588,565.621 396.751,565.572 C396.902,565.527 397.049,565.471 397.198,565.419 C397.357,565.364 397.516,565.309 397.672,565.246 C397.813,565.188 397.95,565.122 398.088,565.058 C398.245,564.986 398.403,564.914 398.557,564.833 C398.69,564.763 398.818,564.685 398.946,564.609 C399.096,564.52 399.247,564.434 399.394,564.337 C399.525,564.25 399.65,564.156 399.776,564.064 C399.912,563.965 400.048,563.869 400.18,563.762 C400.314,563.653 400.441,563.537 400.569,563.421 C400.664,563.336 400.763,563.259 400.855,563.17 C400.876,563.15 400.893,563.128 400.913,563.108 C401.048,562.976 401.173,562.834 401.299,562.694 C401.398,562.585 401.501,562.481 401.594,562.369 C401.698,562.244 401.79,562.111 401.888,561.983 C401.99,561.848 402.097,561.715 402.192,561.576 C402.261,561.473 402.322,561.363 402.387,561.257 C402.494,561.086 402.605,560.916 402.701,560.74 C402.758,560.633 402.806,560.522 402.859,560.413 C402.95,560.231 403.044,560.051 403.123,559.866 C403.199,559.687 403.26,559.5 403.326,559.314 C403.369,559.193 403.42,559.076 403.458,558.954 C403.515,558.77 403.558,558.58 403.605,558.392 C403.637,558.263 403.677,558.135 403.705,558.005 C403.738,557.848 403.756,557.687 403.783,557.528 C403.81,557.36 403.841,557.192 403.859,557.023 C403.874,556.886 403.877,556.745 403.886,556.606 C403.899,556.411 403.914,556.215 403.916,556.019 C403.916,555.992 403.92,555.965 403.92,555.938 L403.92,517.39 C432.047,512.638 453.545,488.119 453.545,458.662 C453.545,429.208 432.048,404.695 403.92,399.944 L403.92,303.55 C403.92,303.524 403.921,303.499 403.921,303.472 C403.921,303.445 403.92,303.421 403.92,303.395 L403.92,233.129 L420.767,233.129 L420.767,248.556 C420.767,263.727 433.11,276.069 448.28,276.069 C463.446,276.069 475.783,263.726 475.783,248.556 L475.783,197.574 C475.783,190.211 472.916,183.299 467.735,178.133 Z M248.209,519.764 C248.209,523.837 244.9,527.151 240.832,527.151 C238.863,527.151 237.016,526.386 235.608,524.974 C234.22,523.59 233.455,521.741 233.455,519.764 L233.455,468.782 C233.455,464.709 236.764,461.395 240.832,461.395 C244.9,461.395 248.209,464.708 248.209,468.782 L248.209,519.764 L248.209,519.764 Z M383.792,179.193 L383.792,231.56 L358.463,205.376 L383.792,179.193 Z M383.793,380.35 L383.793,399.981 C375.825,401.359 368.399,404.321 361.845,408.537 L358.622,405.205 L383.793,380.35 Z M370.12,164.378 L344.462,190.901 L318.805,164.378 L370.12,164.378 L370.12,164.378 Z M305.132,179.193 L323.775,198.465 C317.751,196.817 311.522,195.673 305.132,195.085 L305.132,179.193 Z M295.063,392.19 C271.368,392.19 249.812,382.852 233.882,367.663 C216.926,351.494 206.344,328.693 206.344,303.469 C206.344,254.546 246.145,214.744 295.068,214.744 C343.99,214.744 383.792,254.545 383.792,303.469 C383.792,317.389 380.566,330.569 374.828,342.305 C360.399,371.815 330.068,392.19 295.063,392.19 Z M342.188,488.049 L309.229,453.977 L344.3,419.347 L346.979,422.118 C339.108,432.216 334.403,444.895 334.403,458.659 C334.403,469.342 337.243,479.37 342.188,488.049 Z M305.132,429.735 L305.132,411.85 C312.99,411.126 320.609,409.568 327.897,407.257 L305.132,429.735 Z M305.132,478.691 L330.461,504.875 L305.132,531.058 L305.132,478.691 Z M318.804,545.873 L344.462,519.35 L370.119,545.873 L318.804,545.873 Z M383.792,531.06 L362.912,509.475 C369.2,513.333 376.257,516.044 383.792,517.348 L383.792,531.06 Z M433.417,458.659 C433.417,480.411 415.72,498.108 393.968,498.108 C372.222,498.108 354.529,480.411 354.529,458.659 C354.529,436.913 372.222,419.22 393.968,419.22 C415.72,419.22 433.417,436.912 433.417,458.659 Z M455.656,248.554 C455.656,252.627 452.347,255.941 448.279,255.941 C444.206,255.941 440.892,252.628 440.892,248.554 L440.892,223.122 C440.892,223.102 440.895,223.084 440.895,223.064 C440.895,223.044 440.892,223.026 440.892,223.006 L440.892,197.574 C440.893,193.5 444.207,190.187 448.279,190.187 C450.248,190.187 452.095,190.952 453.501,192.363 C454.891,193.748 455.656,195.598 455.656,197.574 L455.656,248.554 L455.656,248.554 Z" id="Shape" fill="url(#radialGradient-1)" fill-rule="nonzero"></path>
                    <path d="M394.04,449.373 C381.09,449.373 381.068,469.5 394.04,469.5 C406.99,469.5 407.012,449.373 394.04,449.373 Z" id="Shape" fill="#3F51B5" fill-rule="nonzero"></path>
                    <g id="icon_bg" transform="translate(135.000000, 96.000000)" fill-rule="nonzero">
                        <circle id="Oval" fill="#9013FE" cx="26" cy="275" r="26"></circle>
                        <rect id="Rectangle-path" fill="url(#radialGradient-2)" transform="translate(89.000000, 37.000000) rotate(45.000000) translate(-89.000000, -37.000000) " x="63" y="11" width="52" height="52" rx="0.5"></rect>
                    </g>
                    <path d="M393.856,54 C380.905,54 380.883,74.127 393.856,74.127 C406.807,74.127 406.828,54 393.856,54 Z" id="Shape" fill="#3F51B5" fill-rule="nonzero"></path>
                    <rect id="Rectangle" x="0" y="0" width="622" height="622"></rect>
                </g>
            </g>
        </g>
    </g>
</svg>