<?xml version="1.0" encoding="UTF-8" standalone="no"?>
<svg width="512px" height="512px" viewBox="0 0 512 512" version="1.1" xmlns="http://www.w3.org/2000/svg" xmlns:xlink="http://www.w3.org/1999/xlink">
    <!-- Generator: Sketch 46.2 (44496) - http://www.bohemiancoding.com/sketch -->
    <title>dna</title>
    <desc>Created with Sketch.</desc>
    <defs>
        <radialGradient cx="50%" cy="0%" fx="50%" fy="0%" r="100%" gradientTransform="translate(0.500000,0.000000),scale(0.445994,1.000000),translate(-0.500000,-0.000000)" id="radialGradient-1">
            <stop stop-color="#EC77F2" offset="0%"></stop>
            <stop stop-color="#2948FF" offset="100%"></stop>
        </radialGradient>
        <radialGradient cx="50%" cy="0%" fx="50%" fy="0%" r="100%" gradientTransform="translate(0.500000,0.000000),scale(0.584386,1.000000),translate(-0.500000,-0.000000)" id="radialGradient-2">
            <stop stop-color="#EC77F2" offset="0%"></stop>
            <stop stop-color="#2948FF" offset="100%"></stop>
        </radialGradient>
        <radialGradient cx="50%" cy="0%" fx="50%" fy="0%" r="100%" gradientTransform="translate(0.500000,0.000000),scale(1.000000,0.999980),translate(-0.500000,-0.000000)" id="radialGradient-3">
            <stop stop-color="#EC77F2" offset="0%"></stop>
            <stop stop-color="#2948FF" offset="100%"></stop>
        </radialGradient>
        <radialGradient cx="50%" cy="0%" fx="50%" fy="0%" r="100%" gradientTransform="translate(0.500000,0.000000),scale(1.000000,0.999982),translate(-0.500000,-0.000000)" id="radialGradient-4">
            <stop stop-color="#EC77F2" offset="0%"></stop>
            <stop stop-color="#2948FF" offset="100%"></stop>
        </radialGradient>
        <radialGradient cx="50%" cy="0%" fx="50%" fy="0%" r="100%" gradientTransform="translate(0.500000,0.000000),scale(0.999986,1.000000),translate(-0.500000,-0.000000)" id="radialGradient-5">
            <stop stop-color="#EC77F2" offset="0%"></stop>
            <stop stop-color="#2948FF" offset="100%"></stop>
        </radialGradient>
        <radialGradient cx="50%" cy="0%" fx="50%" fy="0%" r="100%" gradientTransform="translate(0.500000,0.000000),scale(0.999991,1.000000),translate(-0.500000,-0.000000)" id="radialGradient-6">
            <stop stop-color="#EC77F2" offset="0%"></stop>
            <stop stop-color="#2948FF" offset="100%"></stop>
        </radialGradient>
        <radialGradient cx="50%" cy="0%" fx="50%" fy="0%" r="100%" gradientTransform="translate(0.500000,0.000000),scale(1.000000,0.999996),translate(-0.500000,-0.000000)" id="radialGradient-7">
            <stop stop-color="#EC77F2" offset="0%"></stop>
            <stop stop-color="#2948FF" offset="100%"></stop>
        </radialGradient>
        <radialGradient cx="50%" cy="0%" fx="50%" fy="0%" r="100%" gradientTransform="translate(0.500000,0.000000),scale(1.000000,0.999995),translate(-0.500000,-0.000000)" id="radialGradient-8">
            <stop stop-color="#EC77F2" offset="0%"></stop>
            <stop stop-color="#2948FF" offset="100%"></stop>
        </radialGradient>
        <radialGradient cx="50%" cy="0%" fx="50%" fy="0%" r="100%" gradientTransform="translate(0.500000,0.000000),scale(0.999995,1.000000),translate(-0.500000,-0.000000)" id="radialGradient-9">
            <stop stop-color="#EC77F2" offset="0%"></stop>
            <stop stop-color="#2948FF" offset="100%"></stop>
        </radialGradient>
        <radialGradient cx="50%" cy="0%" fx="50%" fy="0%" r="100%" gradientTransform="translate(0.500000,0.000000),scale(0.999995,1.000000),translate(-0.500000,-0.000000)" id="radialGradient-10">
            <stop stop-color="#EC77F2" offset="0%"></stop>
            <stop stop-color="#2948FF" offset="100%"></stop>
        </radialGradient>
        <radialGradient cx="50%" cy="0%" fx="50%" fy="0%" r="100%" gradientTransform="translate(0.500000,0.000000),scale(1.000000,0.999997),translate(-0.500000,-0.000000)" id="radialGradient-11">
            <stop stop-color="#EC77F2" offset="0%"></stop>
            <stop stop-color="#2948FF" offset="100%"></stop>
        </radialGradient>
        <radialGradient cx="50%" cy="0%" fx="50%" fy="0%" r="100%" gradientTransform="translate(0.500000,0.000000),scale(1.000000,0.999984),translate(-0.500000,-0.000000)" id="radialGradient-12">
            <stop stop-color="#EC77F2" offset="0%"></stop>
            <stop stop-color="#2948FF" offset="100%"></stop>
        </radialGradient>
        <radialGradient cx="50%" cy="0%" fx="50%" fy="0%" r="100%" gradientTransform="translate(0.500000,0.000000),scale(1.000000,0.445940),translate(-0.500000,-0.000000)" id="radialGradient-13">
            <stop stop-color="#EC77F2" offset="0%"></stop>
            <stop stop-color="#2948FF" offset="100%"></stop>
        </radialGradient>
        <radialGradient cx="50%" cy="0%" fx="50%" fy="0%" r="100%" gradientTransform="translate(0.500000,0.000000),scale(1.000000,0.729320),translate(-0.500000,-0.000000)" id="radialGradient-14">
            <stop stop-color="#EC77F2" offset="0%"></stop>
            <stop stop-color="#2948FF" offset="100%"></stop>
        </radialGradient>
        <radialGradient cx="50%" cy="0%" fx="50%" fy="0%" r="100%" gradientTransform="translate(0.500000,0.000000),scale(1.000000,0.796356),translate(-0.500000,-0.000000)" id="radialGradient-15">
            <stop stop-color="#EC77F2" offset="0%"></stop>
            <stop stop-color="#2948FF" offset="100%"></stop>
        </radialGradient>
    </defs>
    <g id="Page-1" stroke="none" stroke-width="1" fill="none" fill-rule="evenodd">
        <g id="dna" fill-rule="nonzero">
            <path d="M485.463,370.174 C478.374,370.174 471.71,367.414 466.698,362.402 L456.014,351.718 C430.598,326.301 399.241,306.563 365.334,294.637 C339.549,285.568 312.487,280.969 284.899,280.969 C276.204,280.969 267.453,281.444 258.888,282.381 C248.43,283.525 237.748,284.105 227.139,284.105 C193.511,284.105 160.512,278.496 129.06,267.433 C87.704,252.887 49.46,228.813 18.46,197.813 L7.773,187.128 C2.761,182.116 0.001,175.452 0.001,168.363 C0.001,161.274 2.761,154.61 7.774,149.598 C12.786,144.586 19.45,141.826 26.539,141.826 C33.628,141.826 40.292,144.586 45.304,149.598 L55.988,160.282 C81.404,185.699 112.761,205.437 146.668,217.363 C172.453,226.433 199.515,231.031 227.103,231.031 C235.798,231.031 244.549,230.556 253.114,229.619 C263.572,228.475 274.254,227.895 284.863,227.895 C318.492,227.895 351.491,233.504 382.942,244.567 C424.298,259.113 462.542,283.187 493.542,314.187 L504.227,324.871 C509.239,329.884 511.999,336.548 511.999,343.636 C511.999,350.725 509.239,357.389 504.226,362.401 C499.216,367.414 492.552,370.174 485.463,370.174 Z" id="Shape" fill="url(#radialGradient-1)"></path>
            <path d="M302.263,261.06 C303.444,250.266 304.046,239.395 304.093,228.514 C297.711,228.104 291.3,227.895 284.865,227.895 C274.256,227.895 263.574,228.475 253.116,229.619 C244.551,230.556 235.8,231.031 227.105,231.031 C221.711,231.031 216.339,230.849 210.991,230.498 C210.885,237.332 210.482,244.157 209.74,250.938 C208.559,261.733 207.957,272.603 207.91,283.484 C214.292,283.894 220.703,284.103 227.138,284.103 C237.748,284.103 248.43,283.523 258.887,282.379 C267.452,281.442 276.203,280.967 284.898,280.967 C290.292,280.967 295.664,281.149 301.012,281.5 C301.118,274.667 301.521,267.842 302.263,261.06 Z" id="Shape" fill="url(#radialGradient-2)" opacity="0.15"></path>
            <path d="M75.354,211.448 C73.435,211.448 71.515,210.716 70.051,209.251 C67.122,206.322 67.122,201.573 70.051,198.644 L134.348,134.347 C137.277,131.418 142.026,131.417 144.954,134.347 C147.883,137.276 147.883,142.025 144.954,144.953 L80.657,209.25 C79.193,210.715 77.273,211.448 75.354,211.448 Z" id="Shape" fill="url(#radialGradient-3)"></path>
            <path d="M117.406,232.427 C115.487,232.427 113.567,231.695 112.103,230.23 C109.174,227.301 109.174,222.552 112.103,219.623 L165.864,165.862 C168.793,162.933 173.542,162.933 176.47,165.862 C179.399,168.791 179.399,173.54 176.47,176.468 L122.709,230.229 C121.245,231.695 119.325,232.427 117.406,232.427 Z" id="Shape" fill="url(#radialGradient-4)"></path>
            <path d="M164.182,248.683 C162.262,248.683 160.343,247.951 158.879,246.486 C155.95,243.557 155.95,238.808 158.879,235.88 L197.38,197.379 C200.309,194.45 205.058,194.45 207.987,197.379 C210.916,200.308 210.916,205.057 207.987,207.985 L169.486,246.486 C168.02,247.95 166.101,248.683 164.182,248.683 Z" id="Shape" fill="url(#radialGradient-5)"></path>
            <path d="M139.652,147.151 C137.733,147.151 135.813,146.419 134.349,144.954 C131.42,142.025 131.42,137.276 134.349,134.348 L198.646,70.051 C201.575,67.122 206.324,67.122 209.253,70.051 C212.182,72.98 212.182,77.729 209.253,80.657 L144.956,144.954 C143.491,146.419 141.571,147.151 139.652,147.151 Z" id="Shape" fill="url(#radialGradient-6)"></path>
            <path d="M171.167,178.666 C169.248,178.666 167.328,177.934 165.864,176.469 C162.935,173.54 162.935,168.791 165.864,165.863 L219.625,112.102 C222.554,109.173 227.303,109.173 230.231,112.102 C233.16,115.031 233.16,119.78 230.231,122.708 L176.47,176.469 C175.006,177.934 173.086,178.666 171.167,178.666 Z" id="Shape" fill="url(#radialGradient-7)"></path>
            <path d="M202.683,210.182 C200.764,210.182 198.844,209.45 197.38,207.985 C194.451,205.056 194.451,200.307 197.38,197.379 L235.881,158.878 C238.81,155.949 243.559,155.949 246.487,158.878 C249.416,161.807 249.416,166.556 246.487,169.485 L207.986,207.986 C206.521,209.449 204.602,210.182 202.683,210.182 Z" id="Shape" fill="url(#radialGradient-8)"></path>
            <path d="M404.625,412.124 C402.706,412.124 400.786,411.392 399.322,409.927 C396.393,406.998 396.393,402.249 399.322,399.321 L466.838,331.805 C469.767,328.876 474.516,328.875 477.445,331.805 C480.374,334.734 480.374,339.483 477.445,342.411 L409.929,409.927 C408.464,411.392 406.544,412.124 404.625,412.124 Z" id="Shape" fill="url(#radialGradient-9)"></path>
            <path d="M373.109,380.608 C371.19,380.608 369.27,379.876 367.806,378.411 C364.877,375.482 364.877,370.733 367.806,367.805 L432.103,303.508 C435.032,300.579 439.781,300.578 442.71,303.508 C445.639,306.437 445.639,311.186 442.71,314.114 L378.413,378.411 C376.948,379.876 375.028,380.608 373.109,380.608 Z" id="Shape" fill="url(#radialGradient-10)"></path>
            <path d="M341.594,349.093 C339.675,349.093 337.755,348.361 336.291,346.896 C333.362,343.967 333.362,339.218 336.291,336.289 L390.052,282.528 C392.981,279.599 397.73,279.599 400.658,282.528 C403.587,285.457 403.587,290.206 400.658,293.135 L346.897,346.896 C345.433,348.361 343.514,349.093 341.594,349.093 Z" id="Shape" fill="url(#radialGradient-4)"></path>
            <path d="M310.079,317.578 C308.16,317.578 306.24,316.846 304.776,315.381 C301.847,312.452 301.847,307.703 304.776,304.775 L343.277,266.274 C346.206,263.345 350.955,263.345 353.883,266.274 C356.812,269.203 356.812,273.952 353.883,276.881 L315.382,315.382 C313.917,316.845 311.998,317.578 310.079,317.578 Z" id="Shape" fill="url(#radialGradient-8)"></path>
            <path d="M337.109,479.64 C335.19,479.64 333.27,478.908 331.806,477.443 C328.877,474.514 328.877,469.765 331.806,466.837 L399.322,399.321 C402.251,396.392 407,396.392 409.928,399.321 C412.857,402.25 412.857,406.999 409.928,409.927 L342.412,477.443 C340.948,478.908 339.029,479.64 337.109,479.64 Z" id="Shape" fill="url(#radialGradient-11)"></path>
            <path d="M308.812,444.906 C306.893,444.906 304.973,444.174 303.509,442.709 C300.58,439.78 300.58,435.031 303.509,432.102 L367.806,367.805 C370.735,364.876 375.484,364.876 378.412,367.805 C381.341,370.734 381.341,375.483 378.412,378.411 L314.115,442.708 C312.651,444.173 310.732,444.906 308.812,444.906 Z" id="Shape" fill="url(#radialGradient-12)"></path>
            <path d="M287.833,402.854 C285.914,402.854 283.994,402.122 282.53,400.657 C279.601,397.728 279.601,392.979 282.53,390.051 L336.291,336.29 C339.22,333.361 343.969,333.361 346.897,336.29 C349.826,339.219 349.826,343.968 346.897,346.897 L293.136,400.658 C291.672,402.122 289.752,402.854 287.833,402.854 Z" id="Shape" fill="url(#radialGradient-7)"></path>
            <path d="M271.578,356.079 C269.659,356.079 267.739,355.347 266.275,353.882 C263.346,350.953 263.346,346.204 266.275,343.276 L304.776,304.775 C307.705,301.846 312.454,301.846 315.383,304.775 C318.312,307.704 318.312,312.453 315.383,315.381 L276.882,353.882 C275.416,355.346 273.497,356.079 271.578,356.079 Z" id="Shape" fill="url(#radialGradient-5)"></path>
            <path d="M343.638,512 C336.549,512 329.885,509.24 324.873,504.228 L314.189,493.544 C283.19,462.544 259.116,424.299 244.57,382.944 C230.024,341.589 224.855,296.695 229.622,253.115 C233.531,217.385 229.293,180.577 217.366,146.668 C205.44,112.761 185.702,81.404 160.285,55.988 L149.601,45.303 C139.254,34.956 139.254,18.12 149.601,7.773 C154.611,2.76 161.276,0 168.364,0 C175.453,0 182.117,2.76 187.129,7.772 L197.813,18.457 C228.812,49.457 252.886,87.702 267.433,129.057 C281.979,170.412 287.148,215.306 282.381,258.886 C278.472,294.616 282.71,331.424 294.637,365.333 C306.563,399.24 326.301,430.597 351.718,456.013 L362.402,466.698 C372.749,477.045 372.749,493.881 362.402,504.228 C357.39,509.24 350.726,512 343.638,512 Z" id="Shape" fill="url(#radialGradient-13)"></path>
            <path d="M231.556,331.328 C234.334,348.898 238.683,366.21 244.569,382.943 C259.115,424.299 283.189,462.543 314.188,493.543 L324.872,504.227 C329.885,509.239 336.549,511.999 343.637,511.999 C350.725,511.999 357.39,509.239 362.402,504.227 C362.719,503.91 363.026,503.586 363.323,503.257 C327.368,504.206 254.512,406.915 231.556,331.328 Z" id="Shape" fill="url(#radialGradient-14)" opacity="0.1"></path>
            <g id="Group" transform="translate(55.000000, 55.000000)" fill="url(#radialGradient-15)">
                <ellipse id="Oval" transform="translate(23.807536, 93.645291) rotate(-135.000000) translate(-23.807536, -93.645291) " cx="23.8075356" cy="93.6452908" rx="14.5118608" ry="18.2228252"></ellipse>
                <ellipse id="Oval" transform="translate(93.653456, 23.799430) rotate(45.000000) translate(-93.653456, -23.799430) " cx="93.6534563" cy="23.7994305" rx="14.5118608" ry="18.2228252"></ellipse>
            </g>
            <g id="Group" transform="translate(64.000000, 64.000000)" fill="#3F51B5">
                <path d="M12.079,74.404 C10.16,74.404 8.24,73.672 6.776,72.207 L2.226,67.657 C-0.703,64.728 -0.703,59.979 2.226,57.051 C5.155,54.122 9.904,54.122 12.832,57.051 L17.382,61.601 C20.311,64.53 20.311,69.279 17.382,72.207 C15.918,73.671 13.999,74.404 12.079,74.404 Z" id="Shape"></path>
                <path d="M66.905,19.578 C64.986,19.578 63.066,18.846 61.602,17.381 L57.052,12.831 C54.123,9.902 54.123,5.153 57.052,2.225 C59.981,-0.704 64.73,-0.704 67.658,2.225 L72.208,6.775 C75.137,9.704 75.137,14.453 72.208,17.381 C70.744,18.846 68.824,19.578 66.905,19.578 Z" id="Shape"></path>
                <path d="M33.401,54.452 C32.919,54.452 32.436,54.435 31.952,54.402 C27.82,54.118 24.7,50.538 24.984,46.406 C25.268,42.274 28.838,39.166 32.981,39.438 C34.726,39.556 36.448,38.918 37.684,37.683 C38.92,36.447 39.56,34.733 39.439,32.98 C39.155,28.848 42.275,25.268 46.407,24.983 C50.534,24.713 54.119,27.819 54.403,31.951 C54.821,38.031 52.592,43.986 48.289,48.288 C44.33,52.249 38.969,54.452 33.401,54.452 Z" id="Shape"></path>
            </g>
        </g>
    </g>
</svg>